HIERARCHY
ROOT root
{
	OFFSET 0.000000 0.000000 0.000000
	CHANNELS 6 Xposition Yposition Zposition Zrotation Yrotation Xrotation
	JOINT lhip
	{
		OFFSET 0.058581 -0.082280 -0.017664
		CHANNELS 3 Zrotation Yrotation Xrotation
		JOINT lknee
		{
			OFFSET 0.043451 -0.386469 0.008037
			CHANNELS 3 Zrotation Yrotation Xrotation
			JOINT lankle
			{
				OFFSET -0.014790 -0.426874 -0.037428
				CHANNELS 3 Zrotation Yrotation Xrotation
				JOINT ltoe
				{
					OFFSET 0.041054 -0.060286 0.122042
					CHANNELS 3 Zrotation Yrotation Xrotation
					End Site
					{
						OFFSET 0.000000 0.000000 0.000000
					}
				}
			}
		}
	}
	JOINT rhip
	{
		OFFSET -0.060310 -0.090513 -0.013543
		CHANNELS 3 Zrotation Yrotation Xrotation
		JOINT rknee
		{
			OFFSET -0.043257 -0.383688 -0.004843
			CHANNELS 3 Zrotation Yrotation Xrotation
			JOINT rankle
			{
				OFFSET 0.019056 -0.420046 -0.034562
				CHANNELS 3 Zrotation Yrotation Xrotation
				JOINT rtoe
				{
					OFFSET -0.034840 -0.062106 0.130323
					CHANNELS 3 Zrotation Yrotation Xrotation
					End Site
					{
						OFFSET 0.000000 0.000000 0.000000
					}
				}
			}
		}
	}
	JOINT lowerback
	{
		OFFSET 0.004439 0.124404 -0.038385
		CHANNELS 3 Zrotation Yrotation Xrotation
		JOINT upperback
		{
			OFFSET 0.004488 0.137956 0.026820
			CHANNELS 3 Zrotation Yrotation Xrotation
			JOINT chest
			{
				OFFSET -0.002265 0.056032 0.002855
				CHANNELS 3 Zrotation Yrotation Xrotation
				JOINT lowerneck
				{
					OFFSET -0.013390 0.211636 -0.033468
					CHANNELS 3 Zrotation Yrotation Xrotation
					JOINT upperneck
					{
						OFFSET 0.010113 0.088937 0.050410
						CHANNELS 3 Zrotation Yrotation Xrotation
						End Site
						{
							OFFSET 0.000000 0.000000 0.000000
						}
					}
				}
				JOINT lclavicle
				{
					OFFSET 0.071702 0.114000 -0.018898
					CHANNELS 3 Zrotation Yrotation Xrotation
					JOINT lshoulder
					{
						OFFSET 0.122921 0.045205 -0.019046
						CHANNELS 3 Zrotation Yrotation Xrotation
						JOINT lelbow
						{
							OFFSET 0.255332 -0.015649 -0.022946
							CHANNELS 3 Zrotation Yrotation Xrotation
							JOINT lwrist
							{
								OFFSET 0.265709 0.012698 -0.007375
								CHANNELS 3 Zrotation Yrotation Xrotation
								End Site
								{
									OFFSET 0.000000 0.000000 0.000000
								}
							}
						}
					}
				}
				JOINT rclavicle
				{
					OFFSET -0.082954 0.112472 -0.023707
					CHANNELS 3 Zrotation Yrotation Xrotation
					JOINT rshoulder
					{
						OFFSET -0.113228 0.046853 -0.008472
						CHANNELS 3 Zrotation Yrotation Xrotation
						JOINT relbow
						{
							OFFSET -0.260127 -0.014369 -0.031269
							CHANNELS 3 Zrotation Yrotation Xrotation
							JOINT rwrist
							{
								OFFSET -0.269108 0.006794 -0.006027
								CHANNELS 3 Zrotation Yrotation Xrotation
								End Site
								{
									OFFSET 0.000000 0.000000 0.000000
								}
							}
						}
					}
				}
			}
		}
	}
}
MOTION
Frames: 10
Frame Time: 0.033333
-1.683734 0.615953 1.000535 -88.881625 -1.524554 88.057150 -3.440814 -4.538296 3.294920 -3.105045 -10.707825 -1.998007 5.269844 8.004414 -6.977145 0.000000 -0.000000 0.000000 0.798451 0.757105 -3.428267 -0.136330 3.121485 18.443719 3.061414 -4.725814 -9.302046 0.000000 -0.000000 0.000000 -5.428315 3.149389 -2.602050 -1.656793 -2.876498 14.146472 -3.019627 0.044842 -3.025934 -1.381159 8.946904 15.140947 5.506653 4.411567 6.021922 -21.208929 -2.571804 0.424510 -52.721134 -9.947524 11.756821 11.731671 -26.386897 -7.106144 -14.701148 -14.964191 0.777076 22.803848 6.284052 6.090330 64.903556 2.825082 12.522810 -16.027224 20.186276 -10.287914 14.376842 18.092626 -11.495132 
-1.688104 0.614477 1.001385 -89.221040 -1.288232 87.611114 -3.260375 -4.385656 4.170134 -3.441055 -9.846947 -1.830833 4.130324 8.647374 -7.747099 0.000000 -0.000000 0.000000 1.428140 0.009443 -0.938457 -0.809585 2.434869 15.132651 2.674113 -5.609141 -9.220863 0.000000 -0.000000 0.000000 -4.026509 3.138898 -2.184036 -2.472468 -2.274407 12.425857 -3.415503 -0.095720 -2.046477 -1.628545 8.770254 13.036713 5.129483 4.719928 5.468009 -21.442187 -1.936502 0.151867 -53.016333 -10.418768 11.077752 11.902101 -27.711916 -5.786257 -13.716804 -15.570327 0.174458 22.564335 5.034778 5.411197 65.526945 2.417968 12.403377 -16.133711 19.887219 -9.200904 14.332410 17.716311 -11.762841 
-1.692748 0.613724 1.003620 -90.032774 -1.211247 86.435453 -3.525910 -3.811275 6.072216 -3.202895 -9.538795 -2.286362 4.095969 8.528703 -8.370033 0.000000 -0.000000 0.000000 1.423250 -0.598791 2.051254 -1.156015 2.201821 12.597091 2.859544 -4.907773 -9.051390 0.000000 -0.000000 0.000000 -3.139413 3.435238 -1.516861 -2.854038 -1.718959 11.977818 -3.498660 0.016533 -1.668420 -1.656221 8.709727 11.262254 4.714731 5.193290 4.758828 -21.793165 -1.892094 0.244104 -53.869649 -10.469504 10.195546 12.532694 -28.801589 -5.570512 -12.938400 -15.430208 -0.870704 21.917213 4.701928 5.497302 66.250744 2.174707 11.864519 -16.744853 19.868425 -9.342850 14.089167 17.368500 -12.562842 
-1.697257 0.614160 1.004363 -89.890612 -0.894249 85.745543 -3.433564 -3.413847 6.542437 -2.999207 -9.485692 -1.102146 3.817493 8.168016 -9.021298 0.000000 -0.000000 0.000000 1.537330 -1.226358 4.414741 -1.336941 1.845856 10.293833 3.004021 -4.163732 -9.648382 0.000000 -0.000000 0.000000 -2.736459 3.289573 -1.188024 -2.752164 -1.814930 11.604450 -3.161736 0.211765 -1.545224 -1.958254 8.449758 9.685792 4.505944 4.917695 2.661223 -21.896165 -1.872304 0.303640 -55.498276 -10.159530 9.747928 12.885924 -29.609138 -5.602946 -11.912913 -15.679446 -2.196919 21.248683 4.893078 5.599766 66.432523 1.743931 11.107569 -16.935772 19.916013 -9.951853 13.655415 17.605085 -13.772656 
-1.699035 0.614322 1.004066 -89.651614 -0.723120 85.989955 -3.444492 -3.291565 5.945107 -2.697708 -9.543600 -0.200280 3.645675 7.929346 -9.540916 0.000000 -0.000000 0.000000 1.713329 -1.393861 4.671642 -1.393134 1.768131 9.432776 2.851855 -4.115008 -9.955520 0.000000 -0.000000 0.000000 -2.879123 3.248250 -1.430221 -2.423281 -2.105398 11.605503 -2.876635 0.173642 -2.124375 -2.072732 8.158140 8.730904 4.657400 4.844977 1.474923 -22.100044 -1.802210 0.443617 -56.245963 -9.553791 9.858388 12.885816 -30.189615 -6.140112 -11.382464 -15.548607 -2.568931 21.403815 4.976585 5.487028 65.813957 1.175245 10.802764 -16.884590 20.363357 -10.262344 13.486693 17.697546 -13.586697 
-1.700683 0.613978 1.003427 -89.505447 -0.732701 86.704716 -3.724049 -3.063182 4.958524 -2.191141 -9.603565 0.443163 3.459216 7.714985 -9.894147 0.000000 -0.000000 0.000000 1.914760 -1.317996 4.343085 -1.676365 1.606201 8.617251 2.408930 -4.290512 -10.319361 0.000000 -0.000000 0.000000 -3.305695 3.325901 -2.439792 -1.941007 -2.473763 12.056457 -2.547872 0.010072 -2.890806 -2.051523 7.833876 7.566256 4.777146 4.545631 -0.929907 -22.439125 -2.022034 0.393239 -56.845140 -8.619502 10.412505 12.382361 -30.330990 -6.550704 -11.592102 -15.570589 -2.074706 21.779143 5.156564 5.200648 64.853350 0.680887 10.490465 -16.807582 20.905875 -10.395815 13.621763 17.787431 -12.483129 
-1.702697 0.613340 1.002943 -89.296988 -0.816428 86.949603 -3.770391 -3.002511 4.993552 -2.263719 -9.757567 0.135823 3.379561 7.598030 -9.961498 0.000000 -0.000000 0.000000 2.107476 -1.484728 4.529788 -1.996633 1.418997 7.811659 1.891569 -4.715087 -10.945206 0.000000 -0.000000 0.000000 -3.524384 3.202534 -2.833604 -1.715014 -2.826924 12.028742 -2.240322 -0.286991 -3.073414 -1.636796 7.620401 6.107650 4.495364 4.858792 -2.806331 -22.916272 -2.088570 0.478030 -56.917090 -7.633465 10.759485 11.239069 -30.776851 -5.126582 -12.117378 -15.378198 -1.664193 22.019638 5.179207 5.007317 64.278681 0.787748 10.352592 -16.961600 21.481461 -10.514240 13.549747 17.763650 -12.106723 
-1.705528 0.612530 1.001816 -88.906648 -0.902006 86.073668 -3.857021 -2.894946 6.489238 -2.414503 -10.020591 -0.600708 3.281139 7.505156 -9.768972 0.000000 -0.000000 0.000000 2.186187 -1.946536 5.887808 -2.431584 1.828195 7.061828 1.282218 -5.041041 -12.526452 0.000000 -0.000000 0.000000 -3.313429 2.990224 -1.609682 -1.828675 -3.072508 11.120788 -2.004164 -0.435557 -2.720835 -1.334245 6.722724 3.845763 4.628508 5.034685 -2.916826 -23.064954 -2.513322 1.042175 -57.044832 -6.895395 10.972959 9.810486 -30.753076 -2.115961 -12.654961 -15.411832 -1.799175 21.688030 4.945874 4.370828 64.587324 0.840031 10.185119 -17.377274 21.883469 -10.278143 13.540953 17.653567 -13.040229 
-1.707754 0.611531 1.001857 -88.791622 -0.927672 85.754147 -3.875407 -2.847101 7.431452 -2.512169 -10.219554 -1.380645 3.189267 7.575588 -9.454911 0.000000 -0.000000 0.000000 1.962482 -1.962737 6.494593 -2.300343 1.944748 6.970444 1.415009 -5.084814 -12.568894 0.000000 -0.000000 0.000000 -2.760377 2.837377 -1.074010 -1.976890 -3.143057 10.531520 -2.087298 -0.601993 -2.639619 -1.523127 5.817900 2.970627 5.079269 4.329130 -4.757554 -23.044905 -2.685018 1.274415 -57.328561 -6.049656 11.630304 8.507801 -29.973098 0.825498 -14.240341 -15.493764 -1.110067 21.311806 5.027006 4.034537 65.092060 0.641181 9.919264 -17.511862 22.102427 -10.790215 13.407205 17.846146 -15.068755 
-1.709140 0.610960 1.001795 -88.576441 -1.037823 85.605919 -3.934187 -2.773474 7.847149 -2.681059 -10.490184 -1.672364 3.191173 7.624663 -9.457735 0.000000 -0.000000 0.000000 1.776273 -2.011229 6.914371 -2.347609 2.186291 6.635004 1.491189 -5.284502 -12.645199 0.000000 -0.000000 0.000000 -2.496153 2.861870 -0.767129 -1.872824 -3.338537 10.245038 -1.964498 -0.751157 -2.778718 -1.458348 4.868819 1.664326 5.135860 3.902529 -6.104435 -23.196218 -3.065018 1.631344 -57.868344 -5.204594 12.238373 7.433543 -28.205893 3.201911 -15.989711 -15.299547 -0.395032 21.095704 5.088502 3.894943 65.201647 0.613572 9.645696 -17.612689 22.882480 -11.349203 13.394424 18.034077 -16.221853 
